# xmcd CD database file
# Copyright (C) 1993-1998 Ti Kan
#
# Track frame offsets:
#  150
#  33565
#  61573
#  93150
#  131975
#  162070
#  190753
#  219323
#
# Disc length: 3447 seconds
#
# Revision: 1
# Processed by: cddbd v1.4b41PL1 Copyright (c) Steve Scherf et al.
# Submitted via: CDWizzard Release:4.13
#
DISCID=620d7508
DTITLE=Gilead Limor - You Are The Stars
DYEAR=1900
DGENRE=
TTITLE0=The Tribe
TTITLE1=Star Palace
TTITLE2=Mystic Dreams
TTITLE3=Aurora
TTITLE4=Lightyears
TTITLE5=Desert
TTITLE6=The Lost Galaxy
TTITLE7=Homeward
EXTD=
EXTT0=
EXTT1=
EXTT2=
EXTT3=
EXTT4=
EXTT5=
EXTT6=
EXTT7=
PLAYORDER=
